<svg width="28" height="28" viewBox="0 0 28 28" fill="none" xmlns="http://www.w3.org/2000/svg">
<g clip-path="url(#clip0_128_759)">
<path fill-rule="evenodd" clip-rule="evenodd" d="M2.91659 6.41671V16.9167H2.33325V19.25C2.33325 19.7172 2.72205 19.8334 2.91659 19.8334H3.55831C3.82861 21.1652 5.00553 22.1667 6.41658 22.1667C7.82764 22.1667 9.00456 21.1652 9.27486 19.8334H17.5583C17.8286 21.1652 19.0055 22.1667 20.4166 22.1667C21.8276 22.1667 23.0046 21.1652 23.2749 19.8334H24.4999C25.1442 19.8334 25.6666 19.3116 25.6666 18.6667V16.9167C25.2 16.9167 25.0833 16.5282 25.0833 16.3334L22.4432 8.94145C22.2774 8.4766 21.8382 8.16671 21.3451 8.16671H17.4999C17.0334 8.16671 16.9166 7.7782 16.9166 7.58337V6.41671C16.9166 6.17517 16.8129 6.02706 16.6859 5.94161C16.5668 5.86072 16.4272 5.83337 16.3333 5.83337H3.49992C3.03337 5.83337 2.91659 6.22188 2.91659 6.41671ZM16.9166 9.33337H21.5833L23.3333 14H16.9166V9.33337ZM6.41658 21C7.38302 21 8.16658 20.2162 8.16658 19.25C8.16658 18.2839 7.38302 17.5 6.41658 17.5C5.45015 17.5 4.66659 18.2839 4.66659 19.25C4.66659 20.2162 5.45015 21 6.41658 21ZM20.4166 21C21.383 21 22.1666 20.2162 22.1666 19.25C22.1666 18.2839 21.383 17.5 20.4166 17.5C19.4502 17.5 18.6666 18.2839 18.6666 19.25C18.6666 20.2162 19.4502 21 20.4166 21Z" fill="white"/>
</g>
<defs>
<clipPath id="clip0_128_759">
<rect width="28" height="28" fill="white"/>
</clipPath>
</defs>
</svg>
