<svg width="20" height="20" viewBox="0 0 20 20" fill="none" xmlns="http://www.w3.org/2000/svg">
<g id="linkedin" clip-path="url(#clip0_322_1369)">
<g id="Vector">
<path d="M3.68793 1.6665C2.4658 1.6665 1.66675 2.46901 1.66675 3.5238C1.66675 4.5553 2.442 5.3807 3.64103 5.3807H3.66423C4.91026 5.3807 5.68571 4.5553 5.68571 3.5238C5.66241 2.46901 4.91026 1.6665 3.68793 1.6665Z" fill="#707070"/>
<path d="M1.87793 6.84799H5.45072V17.5969H1.87793V6.84799Z" fill="#707070"/>
<path d="M14.2203 6.59648C12.2929 6.59648 11.0004 8.40759 11.0004 8.40759V6.84876H7.42755V17.5977H11.0002V11.5951C11.0002 11.2737 11.0235 10.9529 11.1179 10.7231C11.3762 10.0814 11.964 9.41661 12.951 9.41661C14.2439 9.41661 14.7609 10.4023 14.7609 11.8473V17.5977H18.3334V11.4344C18.3334 8.13283 16.5707 6.59648 14.2203 6.59648Z" fill="#707070"/>
</g>
</g>
<defs>
<clipPath id="clip0_322_1369">
<rect width="20" height="20" fill="white"/>
</clipPath>
</defs>
</svg>
