<svg width="64" height="64" viewBox="0 0 64 64" fill="none" xmlns="http://www.w3.org/2000/svg">
<circle cx="32" cy="32" r="32" fill="#111111"/>
<g clip-path="url(#clip0_1_122)">
<path d="M18.9466 26.3405C18.5897 26.1875 18.5695 25.6941 18.9127 25.513L31.7815 18.7206C31.9181 18.6485 32.0821 18.6485 32.2187 18.7206L45.0875 25.513C45.4306 25.6941 45.4104 26.1875 45.0536 26.3405L32.1848 31.8593C32.067 31.9099 31.9332 31.9099 31.8154 31.8593L18.9466 26.3405Z" fill="white"/>
<path d="M23.0705 29.7875C22.943 29.7328 22.7975 29.7386 22.6747 29.8034L18.9127 31.7891C18.5695 31.9702 18.5897 32.4636 18.9466 32.6166L31.8154 38.1354C31.9332 38.186 32.0669 38.186 32.1848 38.1354L45.0536 32.6166C45.4104 32.4636 45.4306 31.9702 45.0875 31.7891L41.3255 29.8034C41.2027 29.7386 41.0572 29.7328 40.9296 29.7875L32.1848 33.5377C32.0669 33.5883 31.9332 33.5883 31.8154 33.5377L23.0705 29.7875Z" fill="white"/>
<path d="M23.0705 36.2243C22.943 36.1696 22.7975 36.1754 22.6747 36.2402L18.9127 38.2259C18.5695 38.407 18.5897 38.9004 18.9466 39.0534L31.8154 44.5722C31.9332 44.6228 32.0669 44.6228 32.1848 44.5722L45.0536 39.0534C45.4104 38.9004 45.4306 38.407 45.0875 38.2259L41.3255 36.2402C41.2027 36.1754 41.0572 36.1696 40.9296 36.2243L32.1848 39.9745C32.0669 40.0251 31.9332 40.0251 31.8154 39.9745L23.0705 36.2243Z" fill="white"/>
</g>
<defs>
<clipPath id="clip0_1_122">
<rect width="32" height="32" fill="white" transform="translate(16 16)"/>
</clipPath>
</defs>
</svg>
