<svg width="28" height="28" viewBox="0 0 28 28" fill="none" xmlns="http://www.w3.org/2000/svg">
<g clip-path="url(#clip0_128_645)">
<path fill-rule="evenodd" clip-rule="evenodd" d="M17.595 12.3587C18.394 12.3313 19.3589 12.4146 20.2542 12.6831C21.119 12.9425 22.2463 13.0521 23.2665 13.0917C23.9563 13.1185 24.6216 13.1141 25.1639 13.096V14.8721C25.1639 15.0141 25.2103 15.1521 25.2963 15.2655C25.4239 15.434 25.5555 15.7155 25.6746 16.1083C25.7908 16.492 25.8828 16.94 25.9533 17.4086C26.0943 18.3464 26.1416 19.3164 26.1416 19.916C26.1416 20.1732 26.291 20.3957 26.5083 20.5025V22.4292H19.8806V21.4411C19.8806 21.2075 19.7553 20.9917 19.5518 20.8748C19.3483 20.7579 19.0975 20.7577 18.8937 20.8743C16.5165 22.2344 13.1266 22.6023 9.76501 22.4649C6.61611 22.3363 3.5917 21.7693 1.65311 21.2562C1.86517 21.2059 2.03919 21.0542 2.11643 20.8504C2.21697 20.585 2.52142 20.3186 3.02633 20.0989C3.50398 19.891 4.034 19.7817 4.36771 19.7468C4.93002 19.7089 6.31667 19.6575 7.43629 19.747C8.82237 19.8579 9.86618 19.248 10.2687 18.8617C10.2786 18.8522 10.2881 18.8424 10.2974 18.8324C11.2131 17.8363 12.6109 16.3249 13.828 15.0279C14.4369 14.3792 14.9987 13.786 15.4318 13.3383C15.6486 13.1141 15.8308 12.929 15.9692 12.7926C16.1096 12.6543 16.1743 12.5973 16.1848 12.588C16.1901 12.5852 16.2179 12.5701 16.2795 12.5485C16.3547 12.522 16.4579 12.4935 16.5894 12.4667C16.8522 12.4131 17.1967 12.3724 17.595 12.3587ZM27.4467 19.3239C27.4244 18.7164 27.3674 17.9598 27.2555 17.2153C27.1793 16.7084 27.0757 16.1945 26.9353 15.7312C26.822 15.3572 26.6758 14.9855 26.4805 14.6718V12.4088C26.4805 12.2276 26.4048 12.0544 26.2714 11.9307C26.138 11.807 25.9589 11.7439 25.7769 11.7563C25.2283 11.7939 24.2988 11.8227 23.318 11.7846C22.3255 11.746 21.3344 11.6406 20.6347 11.4308C19.5745 11.1128 18.4616 11.0201 17.5496 11.0514C17.0924 11.067 16.6729 11.1143 16.3247 11.1853C16.0044 11.2506 15.6566 11.3526 15.4139 11.5273C15.315 11.5984 15.1744 11.7334 15.0421 11.8637C14.8927 12.0109 14.7022 12.2047 14.4825 12.4318C14.0425 12.8866 13.4754 13.4855 12.865 14.1358C11.6511 15.4293 10.2596 16.934 9.34176 17.9322C9.15506 18.1014 8.4808 18.5182 7.54193 18.4431C6.3223 18.3456 4.85176 18.4024 4.26606 18.4426L4.24478 18.4444C3.80375 18.4889 3.12979 18.6258 2.49812 18.9006C1.97671 19.1275 1.37861 19.4948 1.03481 20.0766C0.79991 20.1688 0.535799 20.3271 0.358507 20.5933C0.200708 20.8303 0.133865 21.1241 0.200752 21.439C0.262835 21.7313 0.42952 21.9949 0.645716 22.2321C0.728783 22.3232 0.836014 22.3892 0.955109 22.4225C2.95351 22.9819 6.25558 23.6308 9.71092 23.772C12.7438 23.8959 15.9835 23.633 18.5639 22.5027V23.0832C18.5639 23.4445 18.8587 23.7373 19.2223 23.7373H27.1666C27.5302 23.7373 27.825 23.4445 27.825 23.0832V19.916C27.825 19.6543 27.6702 19.4285 27.4467 19.3239Z" fill="white"/>
<path fill-rule="evenodd" clip-rule="evenodd" d="M23.0625 20.6076C24.5796 20.5057 26.155 20.5187 27.1374 20.562C27.5006 20.5781 27.8082 20.2985 27.8243 19.9376C27.8404 19.5768 27.5591 19.2712 27.1958 19.2552C26.175 19.2101 24.5493 19.1966 22.9737 19.3025C22.1859 19.3554 21.3994 19.4389 20.7018 19.5663C20.0169 19.6913 19.3652 19.8676 18.8799 20.13C18.0096 20.6007 15.5964 21.3498 12.4438 21.5945C9.31074 21.8377 5.52599 21.5756 1.90618 20.0994C1.56982 19.9623 1.18523 20.122 1.04717 20.4562C0.909117 20.7903 1.06987 21.1724 1.40623 21.3096C5.26783 22.8843 9.27111 23.1528 12.5463 22.8986C15.802 22.6459 18.4173 21.8696 19.5093 21.279C19.8089 21.117 20.2958 20.9704 20.9398 20.8529C21.5711 20.7376 22.3039 20.6586 23.0625 20.6076Z" fill="white"/>
<path fill-rule="evenodd" clip-rule="evenodd" d="M11.5311 15.9512C11.1675 15.9512 10.8727 16.244 10.8727 16.6052C10.8727 17.0535 10.9099 17.7396 11.0279 18.3438C11.0861 18.6421 11.1711 18.9588 11.3022 19.2244C11.4179 19.4588 11.6591 19.8346 12.1186 19.9251C12.3584 19.9723 12.5834 19.928 12.7461 19.8821C12.9155 19.8343 13.0914 19.7623 13.255 19.6915C13.3388 19.6552 13.423 19.6177 13.5089 19.5795C13.7786 19.4594 14.0644 19.3322 14.4039 19.2131C15.2658 18.9106 16.4125 18.6877 17.9279 19.0715C18.0671 19.1068 18.2871 19.289 18.5538 19.7331C18.733 20.0316 18.8728 20.3383 19.0046 20.6273C19.4818 21.6741 20.3154 20.6273 20.2356 20.1551C20.0972 19.8516 19.9052 19.4304 19.6846 19.063C19.4046 18.5967 18.9488 17.9801 18.2532 17.8039C16.4291 17.342 15.0117 17.6125 13.9654 17.9796C13.5695 18.1185 13.2167 18.2758 12.9412 18.3986C12.8642 18.4329 12.7932 18.4645 12.729 18.4923C12.6174 18.5406 12.531 18.5755 12.4621 18.5996C12.4126 18.4833 12.3631 18.3132 12.3205 18.0947C12.2238 17.5994 12.1894 17.0027 12.1894 16.6052C12.1894 16.244 11.8946 15.9512 11.5311 15.9512ZM12.5271 18.7196C12.5271 18.7196 12.525 18.7163 12.5204 18.7115C12.5247 18.7176 12.5271 18.7196 12.5271 18.7196Z" fill="white"/>
<path fill-rule="evenodd" clip-rule="evenodd" d="M13.1224 3.19165C12.8507 2.95934 12.4419 2.98568 12.2027 3.25091L3.14092 13.2981C2.90906 13.5552 2.91819 13.947 3.16177 14.1932L4.54621 15.5921C4.67259 15.7198 4.84615 15.7905 5.02639 15.7876C5.20663 15.7846 5.37778 15.7084 5.4999 15.5767L14.8134 5.52947C14.9343 5.39906 14.9967 5.22549 14.9864 5.0485C14.976 4.87151 14.8938 4.70627 14.7586 4.59063L13.1224 3.19165Z" fill="white"/>
<path fill-rule="evenodd" clip-rule="evenodd" d="M12.4452 6.59483C12.7356 6.89319 13.242 7.28409 13.8707 7.55087C14.0659 7.6337 14.2779 7.70658 14.5028 7.76042L13.4763 8.90058C13.2902 8.76721 13.0654 8.59127 12.839 8.40478C12.5824 8.19342 12.3351 7.97788 12.1552 7.81106C12.064 7.72655 11.9973 7.66118 11.9569 7.61835L11.9559 7.61729C11.5168 6.88574 11.3666 8.26586 10.8187 8.28244L10.82 8.28469C10.8453 8.33012 10.8718 8.36633 10.8884 8.38809C10.9232 8.43355 10.9625 8.47705 10.996 8.51261C11.0658 8.58668 11.1571 8.67493 11.257 8.76751C11.4591 8.95487 11.7261 9.18736 11.9986 9.41179C12.1964 9.57472 12.4031 9.73844 12.5944 9.88011L11.6505 10.9285L10.0859 9.41559C9.47746 8.82725 9.51418 9.99251 9.16758 10.353L10.7719 11.9043L9.81415 12.9681C9.71981 12.8458 9.61764 12.7248 9.51418 12.6088C9.08101 12.1228 8.53874 11.6272 8.1715 11.3179C7.52387 10.7724 8.07496 12.1903 7.32007 12.3157C7.65819 12.6005 8.15045 13.0519 8.52844 13.476C8.6998 13.6682 8.83084 13.8363 8.9137 13.9682L7.78266 15.2244C7.59514 14.5404 7.22622 13.7879 6.55286 13.1538C5.93666 12.5735 6.09996 14.1525 5.64705 14.1032C6.57724 14.9792 6.68335 16.2172 6.62262 16.6851C6.58573 16.9693 6.73939 17.2443 7.00171 17.3635C7.26403 17.4827 7.57391 17.4184 7.76622 17.2048L16.4656 7.54245C16.6618 7.32453 16.6886 7.00372 16.5313 6.75665C16.3739 6.50958 16.0706 6.39628 15.7884 6.47912C15.3213 6.61625 14.8371 6.53851 14.3879 6.34787C13.935 6.15569 13.5715 5.87022 13.3917 5.68547C12.8014 5.07908 13.3416 6.30366 12.4452 6.59483Z" fill="white"/>
</g>
<defs>
<clipPath id="clip0_128_645">
<rect width="28" height="28" fill="white"/>
</clipPath>
</defs>
</svg>
