<svg width="64" height="64" viewBox="0 0 64 64" fill="none" xmlns="http://www.w3.org/2000/svg">
<circle cx="32" cy="32" r="32" fill="#111111"/>
<g clip-path="url(#clip0_1_115)">
<path fill-rule="evenodd" clip-rule="evenodd" d="M27.9867 39.9999H36.0135C36.3762 38.9871 37.1575 37.4231 38.0446 35.7661C38.7397 34.4678 39.4819 33.1451 40.106 32.0329C40.2723 31.7364 40.4303 31.4548 40.5768 31.1926C41.0801 30.2918 41.3341 29.0592 41.3334 27.7601C41.3327 26.4498 41.0736 25.0104 40.4902 23.6677C39.3248 20.986 36.084 18.7374 32.0001 18.6665C27.9162 18.7374 24.6753 20.986 23.51 23.6677C22.9265 25.0104 22.6674 26.4498 22.6667 27.7601C22.6661 29.0592 22.9201 30.2918 23.4234 31.1926C23.5698 31.4548 23.7278 31.7364 23.8942 32.0329C24.5183 33.1451 25.2604 34.4678 25.9556 35.7661C26.8427 37.4231 27.624 38.9871 27.9867 39.9999ZM27.0001 26.6665C27.0001 26.5687 27.0612 26.2863 27.2251 25.8868C27.383 25.502 27.6205 25.0468 27.9363 24.6126C28.5733 23.7367 29.4859 22.9998 30.6667 22.9998V22.3332C29.1809 22.3332 28.0935 23.2629 27.3972 24.2204C27.0463 24.7029 26.7839 25.206 26.6084 25.6337C26.4389 26.0467 26.3334 26.431 26.3334 26.6665H27.0001Z" fill="white"/>
<path d="M28.0446 41.3332C27.8249 42.6665 28.3083 45.3332 32.0001 45.3332C35.6918 45.3332 36.1753 42.6665 35.9555 41.3332H28.0446Z" fill="white"/>
</g>
<defs>
<clipPath id="clip0_1_115">
<rect width="32" height="32" fill="white" transform="translate(16 16)"/>
</clipPath>
</defs>
</svg>
