<svg width="20" height="20" viewBox="0 0 20 20" fill="none" xmlns="http://www.w3.org/2000/svg">
<g id="whatsapp" clip-path="url(#clip0_322_1363)">
<path id="Vector" d="M1.66675 18.3332L2.84387 14.0533C2.1175 12.8005 1.73583 11.3804 1.73652 9.92414C1.73862 5.37136 5.46116 1.6665 10.035 1.6665C12.2545 1.6672 14.338 2.52762 15.9052 4.08873C17.4717 5.64984 18.3341 7.72484 18.3334 9.93178C18.3313 14.4853 14.6088 18.1901 10.035 18.1901C8.64643 18.1894 7.27812 17.8429 6.06612 17.1846L1.66675 18.3332ZM14.2152 11.895C14.1636 11.8089 14.0255 11.7575 13.8175 11.654C13.6103 11.5505 12.5909 11.0512 12.4004 10.9825C12.2106 10.9137 12.0724 10.879 11.9336 11.0859C11.7954 11.2922 11.3977 11.7575 11.277 11.895C11.1563 12.0325 11.0349 12.0498 10.8276 11.9464C10.6204 11.8429 9.95193 11.6255 9.15998 10.9221C8.54386 10.3748 8.1273 9.69914 8.00658 9.4922C7.88587 9.28595 7.99402 9.17414 8.09729 9.07136C8.19079 8.979 8.30453 8.83039 8.40849 8.70956C8.51385 8.59012 8.54804 8.504 8.61782 8.36581C8.6869 8.22831 8.65271 8.10748 8.60038 8.004C8.54805 7.90123 8.13358 6.88525 7.96123 6.47206C7.79237 6.06998 7.62142 6.12414 7.49443 6.11789L7.09671 6.11095C6.95855 6.11095 6.73387 6.16234 6.54408 6.36928C6.35429 6.57623 5.81841 7.07484 5.81841 8.09081C5.81841 9.10678 6.56153 10.088 6.66479 10.2255C6.76876 10.363 8.1266 12.4478 10.2066 13.3415C10.7013 13.554 11.0879 13.6811 11.3886 13.7762C11.8854 13.9332 12.3376 13.9109 12.6948 13.8582C13.0932 13.7991 13.9215 13.3589 14.0945 12.8769C14.2676 12.3943 14.2676 11.9811 14.2152 11.895Z" fill="#707070"/>
</g>
<defs>
<clipPath id="clip0_322_1363">
<rect width="20" height="20" fill="white"/>
</clipPath>
</defs>
</svg>
