<svg width="33" height="40" viewBox="0 0 33 40" fill="none" xmlns="http://www.w3.org/2000/svg">
<path d="M17.5762 19.5156C17.2646 19.327 16.9223 19.1944 16.5647 19.1236C16.2078 19.0463 15.8435 19.0077 15.4783 19.0084V18.8747C15.7287 18.8716 15.978 18.8403 16.2213 18.7813C16.4882 18.7216 16.7428 18.6164 16.9737 18.4702C17.2202 18.3061 17.4185 18.0795 17.5481 17.8137C17.7071 17.4645 17.783 17.0833 17.7698 16.7C17.7836 16.2912 17.7001 15.885 17.5263 15.5146C17.3723 15.2036 17.1184 14.9529 16.8051 14.8021C16.4436 14.6312 16.0469 14.5471 15.6469 14.5564H14.9632V24.0174H16.1932C16.6418 24.0301 17.0869 23.9363 17.4919 23.7436C17.8452 23.5653 18.1326 23.2799 18.313 22.9285C18.5128 22.5136 18.6092 22.0569 18.5939 21.5969C18.6129 21.1487 18.5162 20.703 18.313 20.3027C18.1384 19.9822 17.8849 19.7113 17.5762 19.5156Z" fill="#111111"/>
<path d="M28.8118 39.9994L16.3243 32.8717L3.80243 39.9994V5.1543H28.8118V39.9994ZM16.3243 32.069L28.1312 38.8016V5.84498H4.49861V38.8016L16.3243 32.069Z" fill="#111111"/>
<path d="M28.8118 3.29161H3.80243V0H28.8118V3.29161ZM4.49861 2.59782H28.1156V0.700012H4.49861V2.59782Z" fill="#111111"/>
<path d="M30.6349 0V3.29161H31.5465C31.83 3.29162 32.1019 3.17961 32.3026 2.98016C32.5033 2.78071 32.6165 2.51008 32.6173 2.2276V1.06713C32.6173 0.78411 32.5045 0.512681 32.3037 0.312555C32.1029 0.112429 31.8305 0 31.5465 0H30.6349Z" fill="#111111"/>
<path d="M1.97927 0V3.29161H1.06769C0.927476 3.29161 0.788639 3.26409 0.659102 3.21062C0.529565 3.15715 0.411864 3.07877 0.312721 2.97997C0.213578 2.88117 0.134933 2.76387 0.081277 2.63478C0.027621 2.50568 4.56458e-06 2.36732 4.56458e-06 2.2276V1.06713C-0.000406175 0.92714 0.026907 0.788444 0.0803791 0.658992C0.133851 0.52954 0.212431 0.411876 0.311615 0.312743C0.410799 0.21361 0.528639 0.134957 0.65838 0.0812904C0.788121 0.027624 0.927213 -5.98429e-07 1.06769 0H1.97927Z" fill="#111111"/>
<path d="M6.05957 7.42383V35.8412L16.3087 30.0296L26.5547 35.8412V7.42383H6.05957ZM19.7958 23.269C19.4667 23.7231 19.0107 24.0704 18.4846 24.2677C17.832 24.5139 17.1374 24.6312 16.4398 24.613H12.3814V24.4637H12.5656C12.6926 24.4657 12.8188 24.4419 12.9363 24.3937C13.0538 24.3456 13.1603 24.2741 13.2493 24.1837C13.3414 24.0971 13.4145 23.9924 13.464 23.8762C13.5134 23.76 13.5381 23.6348 13.5365 23.5086V15.124C13.5383 14.9977 13.5137 14.8725 13.4642 14.7562C13.4148 14.64 13.3416 14.5353 13.2493 14.4488C13.1603 14.3584 13.0538 14.2869 12.9363 14.2388C12.8188 14.1906 12.6926 14.1668 12.5656 14.1688H12.3814V14.0195H15.8467C16.4852 14.0042 17.1208 14.1098 17.7198 14.3306C18.1858 14.4968 18.595 14.7913 18.8998 15.18C19.1843 15.5791 19.3311 16.0595 19.3182 16.5489C19.3288 16.9454 19.242 17.3384 19.0653 17.6938C18.914 17.993 18.6936 18.2521 18.4222 18.4498C18.1702 18.6297 17.8863 18.7606 17.5855 18.8356C18.081 18.8923 18.5565 19.0627 18.9748 19.3334C19.3612 19.5828 19.6772 19.9266 19.8926 20.3321C20.1108 20.7638 20.218 21.2427 20.2048 21.7259C20.2281 22.2713 20.0808 22.8106 19.7833 23.269H19.7958Z" fill="#111111"/>
</svg>
