<svg width="294" height="64" viewBox="0 0 294 64" fill="none" xmlns="http://www.w3.org/2000/svg">
<g clip-path="url(#clip0_197_2111)">
<path d="M77.2462 22.4114H77.136C77.1398 22.1116 77.0807 21.8144 76.9625 21.5386C76.8444 21.2629 76.6698 21.0147 76.4499 20.81C76.2381 20.5991 75.9867 20.4319 75.7099 20.3181C75.4332 20.2042 75.1366 20.1459 74.8371 20.1465H74.4064L74.3713 19.7873H77.2562L77.2462 22.4114ZM77.2462 42.3115V44.9305H74.3613L74.3964 44.5713H74.8371C75.1395 44.5727 75.4391 44.5134 75.7179 44.3968C75.9967 44.2802 76.2491 44.1088 76.4599 43.8929C76.6792 43.6887 76.8534 43.4414 76.9715 43.1666C77.0897 42.8917 77.1491 42.5954 77.146 42.2965L77.2462 42.3115ZM80.4917 19.7873V44.9305H77.136V19.7873H80.4917ZM82.6203 19.7873C84.1247 19.7532 85.6224 19.9967 87.0378 20.5057C88.1594 20.9088 89.1403 21.626 89.8625 22.571C90.544 23.5172 90.8958 24.6596 90.8642 25.8237C90.8967 26.7594 90.7008 27.6889 90.2933 28.5326C89.9317 29.2432 89.4065 29.8586 88.7607 30.3285C88.158 30.7594 87.4779 31.071 86.7573 31.2464C87.9347 31.3801 89.0656 31.7812 90.0629 32.4188C90.9848 33.0067 91.7373 33.8233 92.2466 34.7884C92.7669 35.8108 93.0266 36.945 93.0028 38.091C93.0326 39.38 92.6618 40.6467 91.941 41.7178C91.171 42.7938 90.0996 43.6197 88.8608 44.0924C87.3185 44.6759 85.677 44.9555 84.0277 44.9156H80.1711C80.1711 44.4167 80.2062 43.9727 80.2062 43.5137H83.4166C84.4794 43.5497 85.5359 43.3379 86.5019 42.8951C87.3457 42.4711 88.033 41.7918 88.4652 40.9545C88.9507 39.9722 89.1863 38.886 89.1513 37.7917C89.1921 36.7271 88.9557 35.6702 88.4652 34.7236C88.0534 33.9583 87.4516 33.3108 86.7172 32.8428C85.9719 32.3953 85.1529 32.0828 84.2981 31.9199C83.4519 31.7405 82.589 31.6502 81.7238 31.6505V31.3263C82.3178 31.3226 82.9093 31.2506 83.4868 31.1118C84.121 30.9623 84.7254 30.7077 85.2748 30.3585C85.864 29.9708 86.3366 29.4311 86.6421 28.797C87.0226 27.9705 87.2027 27.0665 87.168 26.1579C87.199 25.1849 87.0018 24.2181 86.592 23.3343C86.22 22.5933 85.6076 21.9991 84.8541 21.6481C83.9889 21.2549 83.045 21.0638 82.0944 21.0894H78.3431C78.3431 20.9747 78.288 20.8599 78.2529 20.7502C78.1928 20.5456 78.1027 20.2513 77.9824 19.7973L82.6203 19.7873Z" fill="white"/>
<path d="M99.1678 42.3971C98.9024 43.0905 98.9425 43.6293 99.278 44.0134C99.4153 44.1881 99.5899 44.3302 99.7892 44.4295C99.9884 44.5287 100.207 44.5825 100.43 44.5871H100.735V44.9463H93.7236V44.5871H94.0141C94.5524 44.5664 95.0736 44.3934 95.5167 44.0883C96.1261 43.6633 96.6048 43.0777 96.899 42.3971H99.1678ZM106.054 22.7515L106.275 25.8395L98.1611 44.8416H95.727L104.241 26.6626L104.492 26.1089C104.637 25.7846 104.797 25.4055 104.993 24.9764C105.188 24.5474 105.343 24.1284 105.494 23.7193C105.623 23.4089 105.714 23.0839 105.764 22.7515H106.054ZM106.054 22.7515L116.227 44.7318H112.295L104.938 27.0368L106.054 22.7515ZM111.358 42.3971H115.18C115.452 43.0749 115.915 43.6603 116.512 44.0833C116.955 44.3891 117.476 44.5623 118.015 44.5821H118.305V44.9413H109.841V44.5821H110.131C110.35 44.5744 110.565 44.518 110.759 44.417C110.953 44.316 111.122 44.173 111.253 43.9985C111.422 43.769 111.521 43.4966 111.54 43.213C111.558 42.9294 111.495 42.6464 111.358 42.3971Z" fill="white"/>
<path d="M122.272 25.6444H122.202C122.198 25.3869 122.141 25.1329 122.035 24.8979C121.929 24.663 121.777 24.4519 121.586 24.2775C121.4 24.0994 121.18 23.9601 120.939 23.8676C120.699 23.7751 120.442 23.7313 120.184 23.7387H119.683V23.3795H122.603L122.272 25.6444ZM122.272 42.631L122.598 44.9309H119.678V44.5717H120.179C120.439 44.5763 120.698 44.5277 120.939 44.4291C121.181 44.3304 121.399 44.1837 121.581 43.998C121.957 43.6393 122.178 43.1491 122.197 42.631H122.272ZM125.448 23.3795V44.9309H122.167V23.3795H125.448ZM125.338 42.631H125.448C125.446 42.8877 125.498 43.142 125.6 43.3775C125.703 43.6129 125.854 43.8243 126.044 43.998C126.426 44.3624 126.937 44.5614 127.466 44.5517H127.927L127.962 44.9109H125.002L125.338 42.631ZM129.429 23.3795C130.443 23.3691 131.453 23.4898 132.435 23.7387C133.291 23.9492 134.099 24.3218 134.814 24.8362C135.476 25.3128 136.013 25.9406 136.381 26.6671C136.769 27.4676 136.961 28.3479 136.942 29.2363C136.942 30.1798 136.715 31.1096 136.279 31.9473C135.843 32.7851 135.212 33.5064 134.438 34.0504C133.579 34.6386 132.589 35.0085 131.553 35.128C132.178 35.3769 132.734 35.7702 133.176 36.2754C133.698 36.8049 134.167 37.3829 134.578 38.0015C134.759 38.224 134.926 38.4572 135.079 38.6999C135.37 39.119 135.735 39.6228 136.181 40.1965C136.627 40.7702 137.072 41.3639 137.533 41.9426C137.952 42.4505 138.404 42.9304 138.885 43.3794C139.256 43.7449 139.688 44.0422 140.163 44.2574C140.665 44.4677 141.206 44.5713 141.75 44.5617V44.9209H140.022C138.911 44.9484 137.803 44.8036 136.737 44.4918C135.944 44.2417 135.209 43.8382 134.573 43.3045C134.012 42.8117 133.508 42.2578 133.071 41.6533C132.796 41.3498 132.54 41.0299 132.304 40.6954L131.303 39.1689L130.346 37.6722C130.062 37.2199 129.882 36.9206 129.805 36.7743C129.412 36.1432 128.92 35.579 128.348 35.103C127.886 34.6893 127.291 34.454 126.67 34.4395V34.0804H128.328C128.951 34.0561 129.572 33.9894 130.186 33.8808C130.822 33.7601 131.41 33.4626 131.884 33.0227C132.49 32.415 132.914 31.6517 133.111 30.8177C133.191 30.5532 133.251 30.283 133.291 30.0096C133.338 29.6574 133.349 29.3014 133.326 28.947C133.296 28.293 133.15 27.6495 132.895 27.0462C132.667 26.5383 132.324 26.0894 131.894 25.7342C131.49 25.3899 131.026 25.1212 130.526 24.941C129.985 24.7578 129.42 24.6553 128.848 24.6367C127.957 24.6367 127.171 24.6068 126.484 24.6367C126.108 24.6617 125.729 24.6617 125.353 24.6367C125.232 24.2276 125.107 23.8235 124.987 23.4145L129.429 23.3795Z" fill="white"/>
<path d="M153.731 22.876C155.407 22.8564 157.073 23.1299 158.654 23.6842C160.101 24.1921 161.436 24.9729 162.586 25.984C163.698 26.9691 164.587 28.1781 165.195 29.5309C165.817 30.9907 166.137 32.56 166.137 34.1455C166.137 35.731 165.817 37.3003 165.195 38.7601C164.588 40.1166 163.699 41.329 162.586 42.3171C161.435 43.3265 160.1 44.1071 158.654 44.6169C157.072 45.1662 155.407 45.4396 153.731 45.425C152.073 45.4397 150.426 45.1662 148.863 44.6169C147.428 44.1041 146.103 43.3274 144.956 42.327C143.83 41.3471 142.934 40.1329 142.332 38.7701C141.109 35.8141 141.109 32.4969 142.332 29.5409C142.933 28.1797 143.825 26.9657 144.946 25.984C146.098 24.9756 147.432 24.1951 148.878 23.6842C150.435 23.133 152.078 22.8594 153.731 22.876ZM153.731 44.2477C155.326 44.2711 156.893 43.8289 158.239 42.9756C159.575 42.0988 160.647 40.876 161.339 39.4386C162.129 37.7906 162.522 35.9815 162.486 34.1555C162.53 32.325 162.141 30.5098 161.349 28.8575C160.646 27.4333 159.567 26.2262 158.229 25.3654C156.885 24.507 155.317 24.0628 153.721 24.0882C152.165 24.0676 150.638 24.503 149.329 25.3404C147.99 26.2056 146.907 27.4112 146.193 28.8325C145.39 30.4815 144.995 32.2983 145.041 34.1306C144.997 35.9578 145.392 37.7691 146.193 39.4136C146.89 40.869 147.97 42.1088 149.319 43.0005C150.636 43.8356 152.17 44.2691 153.731 44.2477Z" fill="white"/>
<path d="M171.255 42.7059V44.9309H168.551V44.5717H169.167C169.687 44.5802 170.189 44.387 170.569 44.0329C170.755 43.8658 170.903 43.6609 171.004 43.4321C171.104 43.2032 171.154 42.9556 171.15 42.7059H171.255ZM171.15 22.8408L173.855 26.0037L173.89 44.9309H171.15V27.2259C171.132 25.759 171.023 24.2945 170.824 22.8408H171.15ZM171.15 22.8408L191.534 41.5037L191.895 45.4198L171.546 26.6871L171.15 22.8408ZM173.89 42.7059C173.888 42.9587 173.942 43.2087 174.049 43.4381C174.155 43.6675 174.311 43.8706 174.506 44.0329C174.879 44.381 175.372 44.5738 175.883 44.5717H176.494V44.9309H173.789V42.7059H173.89ZM189.18 25.6096C189.173 25.3578 189.114 25.1101 189.008 24.8813C188.902 24.6525 188.751 24.4472 188.564 24.2776C188.184 23.9223 187.679 23.729 187.157 23.7388H186.526V23.3796H189.231V25.6096H189.18ZM191.885 23.3796V40.9449C191.885 41.7331 191.885 42.4715 191.955 43.1549C192.025 43.8384 192.085 44.5967 192.206 45.4348H191.89L189.185 42.237V23.3796H191.885ZM191.775 25.6096V23.3796H194.479V23.7388H193.893C193.377 23.7329 192.878 23.9259 192.501 24.2776C192.307 24.4414 192.152 24.6456 192.047 24.8758C191.941 25.106 191.888 25.3565 191.89 25.6096H191.775Z" fill="white"/>
<path d="M228.257 32.9183C228.448 34.1735 228.471 35.4483 228.327 36.7097C228.192 37.8794 227.869 39.0199 227.37 40.0871C226.87 41.1482 226.163 42.0995 225.29 42.8858C224.417 43.672 223.396 44.2774 222.286 44.6667C220.958 45.1166 219.562 45.3344 218.159 45.3103C216.92 45.3149 215.683 45.2064 214.463 44.986C213.369 44.7857 212.302 44.454 211.288 43.9982C210.367 43.5894 209.521 43.0314 208.784 42.347C208.088 41.6872 207.536 40.8926 207.161 40.0122C206.78 39.0606 206.591 38.0435 206.605 37.019C206.59 36.294 206.7 35.5717 206.93 34.8838C207.137 34.2643 207.441 33.6815 207.832 33.1577C208.202 32.6533 208.639 32.2004 209.129 31.8108C209.599 31.434 210.102 31.1 210.632 30.813C211.137 30.535 211.669 30.3078 212.219 30.1346L212.795 30.8879C212.409 31.2306 212.058 31.6117 211.749 32.0253C211.432 32.4412 211.156 32.8854 210.922 33.3523C210.683 33.8487 210.514 34.376 210.421 34.9188C210.313 35.5297 210.259 36.1491 210.261 36.7696C210.268 37.8142 210.49 38.8464 210.912 39.8027C211.303 40.6819 211.881 41.4664 212.605 42.1025C213.366 42.7723 214.255 43.2814 215.219 43.5991C216.32 43.9493 217.47 44.1178 218.625 44.098C219.759 44.1172 220.881 43.8585 221.891 43.3447C222.818 42.8565 223.629 42.1761 224.27 41.3492C224.9 40.5299 225.377 39.6037 225.677 38.6154C225.974 37.6464 226.102 36.6342 226.058 35.6222C226.017 34.6644 225.784 33.7246 225.372 32.8584C225.161 32.384 224.844 31.9641 224.445 31.6312C224.051 31.3219 223.559 31.1627 223.058 31.1822H222.517V30.823H230.1V31.1822H229.599C229.387 31.1598 229.173 31.1942 228.98 31.282C228.786 31.3697 228.619 31.5075 228.497 31.6811C228.279 32.0548 228.195 32.4907 228.257 32.9183ZM217.578 19.2841C218.434 19.2845 219.287 19.3884 220.118 19.5934C220.91 19.7767 221.675 20.0636 222.392 20.4464C223.049 20.785 223.627 21.2575 224.089 21.8333L223.228 26.2483H222.867C222.889 25.2193 222.686 24.1979 222.271 23.2551C221.908 22.4358 221.324 21.7329 220.584 21.2247C219.796 20.7218 218.874 20.4711 217.939 20.5063C217.331 20.4861 216.725 20.5959 216.162 20.8282C215.6 21.0606 215.094 21.4101 214.679 21.8533C214.249 22.3132 213.914 22.8531 213.694 23.4421C213.474 24.0311 213.373 24.6575 213.396 25.2855C213.407 26.7873 213.937 28.2394 214.899 29.3962C216.221 30.9977 217.681 32.4816 219.261 33.8312L220.944 35.4126C221.58 35.9963 222.281 36.6149 223.053 37.2585L225.467 39.3088C226.408 40.0738 227.322 40.8404 228.206 41.6086C229.033 42.3267 229.914 42.9805 230.841 43.5642C231.633 44.0639 232.516 44.4029 233.44 44.562V44.9212C232.834 44.9212 232.043 44.9561 231.056 44.9561C229.989 44.9443 228.928 44.7934 227.901 44.5071C226.683 44.155 225.549 43.5629 224.565 42.766C223.751 42.1175 222.969 41.4889 222.221 40.8803C221.475 40.2717 220.774 39.688 220.113 39.1392C219.452 38.5905 218.841 38.0616 218.275 37.5578L216.742 36.1959C215.343 34.9188 214.129 33.7381 213.101 32.6539C212.139 31.6664 211.33 30.5415 210.702 29.3164C210.124 28.1242 209.834 26.8138 209.855 25.4901C209.845 24.6049 210.049 23.7302 210.451 22.9408C210.841 22.1789 211.393 21.5113 212.069 20.9852C212.796 20.4125 213.628 19.9855 214.518 19.7281C215.51 19.4249 216.542 19.2751 217.578 19.2841Z" fill="white"/>
<path d="M266.01 34.4444L265.83 40.2613C265.217 41.2595 264.441 42.1496 263.536 42.8953C262.549 43.7137 261.418 44.3414 260.2 44.7461C258.747 45.2264 257.223 45.4576 255.693 45.4296C253.257 45.4554 250.851 44.894 248.681 43.7933C246.694 42.7728 245.047 41.2013 243.938 39.2685C242.767 37.1417 242.183 34.7439 242.245 32.3192C242.182 29.9193 242.754 27.5451 243.903 25.4348C245.008 23.4989 246.649 21.921 248.631 20.89C250.871 19.7655 253.355 19.2102 255.863 19.2737C257.54 19.2548 259.211 19.4817 260.821 19.9472C262.138 20.3259 263.399 20.8744 264.573 21.5785L265.074 27.0012H264.753C264.172 24.8012 263.1 23.1649 261.523 22.1023C260.491 21.376 259.326 20.8598 258.094 20.5833C256.862 20.3067 255.587 20.2753 254.342 20.4909C253.098 20.7064 251.909 21.1646 250.842 21.8393C249.776 22.5139 248.855 23.3916 248.13 24.4221C247.772 24.929 247.467 25.4705 247.218 26.0384C246.363 28.0027 245.946 30.1287 245.996 32.2693C245.945 34.4117 246.357 36.54 247.203 38.5102C247.922 40.1821 249.097 41.62 250.594 42.6609C252.1 43.6736 253.875 44.2171 255.693 44.2223C257.32 44.2536 258.936 43.9372 260.431 43.2944C261.866 42.6359 263.071 41.5659 263.892 40.2214C264.803 38.7979 265.416 36.8773 265.73 34.4594L266.01 34.4444Z" fill="white"/>
<path d="M281.446 22.8759C283.122 22.8568 284.788 23.1303 286.369 23.6841C287.815 24.1901 289.149 24.9712 290.296 25.9839C291.408 26.9702 292.299 28.1788 292.91 29.5309C293.529 30.9914 293.847 32.5604 293.847 34.1455C293.847 35.7305 293.529 37.2995 292.91 38.7601C292.303 40.1178 291.412 41.3306 290.296 42.317C289.146 43.3259 287.813 44.1065 286.369 44.6168C284.787 45.1658 283.122 45.4392 281.446 45.425C279.788 45.4396 278.141 45.1661 276.578 44.6168C275.143 44.1052 273.817 43.3283 272.671 42.327C271.541 41.3497 270.643 40.1349 270.042 38.77C269.433 37.307 269.12 35.739 269.12 34.1555C269.12 32.5719 269.433 31.0039 270.042 29.5409C270.641 28.1789 271.534 26.9646 272.656 25.9839C273.807 24.9745 275.142 24.1939 276.588 23.6841C278.147 23.1329 279.792 22.8593 281.446 22.8759ZM281.446 44.2477C283.041 44.2711 284.608 43.8289 285.954 42.9755C287.287 42.0969 288.357 40.8745 289.049 39.4385C289.843 37.7917 290.238 35.9821 290.201 34.1555C290.245 32.325 289.856 30.5098 289.064 28.8574C288.364 27.4324 287.287 26.2249 285.949 25.3653C284.606 24.5048 283.037 24.0603 281.441 24.0882C279.884 24.0677 278.355 24.5031 277.044 25.3404C275.703 26.2029 274.62 27.4092 273.908 28.8325C273.102 30.4806 272.705 32.2977 272.751 34.1305C272.711 35.958 273.108 37.7688 273.908 39.4136C274.603 40.8684 275.682 42.108 277.029 43.0005C278.347 43.8365 279.883 44.27 281.446 44.2477Z" fill="white"/>
<path d="M28.1979 31.294C27.698 30.9917 27.1488 30.7789 26.5752 30.6654C26.0026 30.5416 25.4182 30.4797 24.8323 30.4808V30.2663C25.234 30.2614 25.6339 30.2112 26.0243 30.1166C26.4525 30.0209 26.8608 29.8521 27.2313 29.6178C27.6269 29.3546 27.9449 28.9913 28.1529 28.5651C28.408 28.0051 28.5297 27.3938 28.5085 26.7792C28.5306 26.1238 28.3968 25.4725 28.1178 24.8785C27.8708 24.3799 27.4636 23.9778 26.9609 23.736C26.3809 23.462 25.7445 23.327 25.1027 23.3419H24.0059V38.5127H25.9792C26.6988 38.533 27.413 38.3826 28.0627 38.0737C28.6295 37.7876 29.0906 37.33 29.3799 36.7666C29.7005 36.1014 29.8552 35.3689 29.8307 34.6314C29.8611 33.9126 29.7059 33.1981 29.3799 32.5561C29.1 32.0422 28.6932 31.6079 28.1979 31.294Z" fill="white"/>
<path d="M46.2234 64.1399L26.1896 52.7107L6.10059 64.1399V8.26611H46.2234V64.1399ZM26.1896 51.4236L45.1316 62.2192V9.37361H7.21747V62.2192L26.1896 51.4236Z" fill="white"/>
<path d="M46.2234 5.27808H6.10059V0H46.2234V5.27808ZM7.21747 4.16559H45.1065V1.12246H7.21747V4.16559Z" fill="white"/>
<path d="M49.1484 0V5.27808H50.6109C51.0657 5.27808 51.5019 5.09848 51.8239 4.77866C52.1459 4.45884 52.3275 4.02489 52.3288 3.57193V1.71113C52.3288 1.25731 52.1478 0.822079 51.8257 0.50118C51.5035 0.18028 51.0665 0 50.6109 0H49.1484Z" fill="white"/>
<path d="M3.17537 0V5.27808H1.7129C1.48796 5.27808 1.26522 5.23395 1.05741 5.1482C0.849588 5.06246 0.660759 4.93679 0.501702 4.77836C0.342645 4.61993 0.216475 4.43184 0.130394 4.22484C0.0443127 4.01785 7.32302e-06 3.79598 7.32302e-06 3.57193V1.71113C-0.000651632 1.48666 0.0431672 1.26426 0.128953 1.05669C0.214739 0.849113 0.340806 0.66044 0.499928 0.501481C0.659051 0.342522 0.848102 0.216402 1.05625 0.130348C1.26439 0.0442948 1.48754 -9.59575e-07 1.7129 0H3.17537Z" fill="white"/>
<path d="M9.72168 11.9033V57.4704L26.1645 48.1514L42.6023 57.4704V11.9033H9.72168ZM31.7589 37.3109C31.231 38.039 30.4993 38.596 29.6554 38.9123C28.6083 39.3071 27.4941 39.4952 26.3748 39.4661H19.8638V39.2266H20.1593C20.3632 39.2298 20.5655 39.1916 20.7541 39.1144C20.9427 39.0373 21.1135 38.9227 21.2562 38.7776C21.404 38.6388 21.5214 38.4709 21.6007 38.2845C21.68 38.0982 21.7196 37.8974 21.717 37.6951V24.2504C21.7199 24.048 21.6804 23.8472 21.6011 23.6608C21.5218 23.4744 21.4043 23.3065 21.2562 23.1679C21.1135 23.0228 20.9427 22.9082 20.7541 22.831C20.5655 22.7539 20.3632 22.7157 20.1593 22.7189H19.8638V22.4794H25.4232C26.4476 22.4549 27.4673 22.6242 28.4283 22.9783C29.176 23.2447 29.8325 23.717 30.3215 24.3402C30.7778 24.9803 31.0133 25.7505 30.9926 26.5353C31.0097 27.171 30.8704 27.8013 30.587 28.3711C30.3443 28.8509 29.9906 29.2664 29.5552 29.5834C29.1509 29.8719 28.6955 30.0818 28.2129 30.202C29.0078 30.293 29.7707 30.5662 30.4417 31.0002C31.0617 31.4001 31.5686 31.9513 31.9142 32.6016C32.2642 33.2938 32.4363 34.0617 32.415 34.8365C32.4525 35.7112 32.2162 36.5758 31.7389 37.3109H31.7589Z" fill="white"/>
</g>
<defs>
<clipPath id="clip0_197_2111">
<rect width="294" height="64" fill="white"/>
</clipPath>
</defs>
</svg>
